<svg width="73" height="72" viewBox="0 0 73 72" fill="none" xmlns="http://www.w3.org/2000/svg">
<g clip-path="url(#clip0_0_107)">
<path fill-rule="evenodd" clip-rule="evenodd" d="M14.7603 16.3469C18.8915 10.7635 24.8224 7.58043 31.5472 5.83164C39.7864 3.68899 48.6052 1.15241 55.8267 5.66748C64.7926 11.2731 73.4235 20.6473 71.9875 31.1158C70.5865 41.3289 57.9485 44.0955 49.7061 50.2868C40.3628 57.3049 33.2155 71.8053 21.9398 68.7089C10.6227 65.601 8.8699 50.257 7.27639 38.635C6.15602 30.4638 9.8563 22.975 14.7603 16.3469Z" fill="#B3E3FF"/>
<g clip-path="url(#clip1_0_107)">
<g clip-path="url(#clip2_0_107)">
<path d="M61.8125 49.5H14.5625V22.5C14.5625 20.6362 16.0737 19.125 17.9375 19.125H58.4375C60.3013 19.125 61.8125 20.6362 61.8125 22.5V49.5Z" fill="#353744"/>
</g>
<g clip-path="url(#clip3_0_107)">
<path d="M61.8125 49.5H14.5625V51.1875C14.5625 53.0513 16.0737 54.5625 17.9375 54.5625H58.4375C60.3013 54.5625 61.8125 53.0513 61.8125 51.1875V49.5Z" fill="#808080"/>
</g>
<g clip-path="url(#clip4_0_107)">
<path d="M58.4375 49.5H14.5625V22.5C14.5625 20.6362 16.0737 19.125 17.9375 19.125H55.0625C56.9263 19.125 58.4375 20.6362 58.4375 22.5V49.5Z" fill="#55525B"/>
</g>
<g clip-path="url(#clip5_0_107)">
<path d="M58.4375 49.5H14.5625V51.1875C14.5625 53.0513 16.0737 54.5625 17.9375 54.5625H55.0625C56.9263 54.5625 58.4375 53.0513 58.4375 51.1875V49.5Z" fill="#DBDEE3"/>
</g>
<g clip-path="url(#clip6_0_107)">
<path d="M53.7969 22.5H19.2031C18.5045 22.5 17.9375 23.067 17.9375 23.7656V44.8594C17.9375 45.558 18.5045 46.125 19.2031 46.125H53.7969C54.4955 46.125 55.0625 45.558 55.0625 44.8594V23.7656C55.0625 23.067 54.4955 22.5 53.7969 22.5Z" fill="#FBBE18"/>
</g>
<g clip-path="url(#clip7_0_107)">
<path d="M23 29.25H41.5625C42.4948 29.25 43.25 28.4948 43.25 27.5625C43.25 26.6302 42.4948 25.875 41.5625 25.875H23C22.0677 25.875 21.3125 26.6302 21.3125 27.5625C21.3125 28.4948 22.0677 29.25 23 29.25Z" fill="#F68820"/>
</g>
<g clip-path="url(#clip8_0_107)">
<path d="M23 36H41.5625C42.4948 36 43.25 35.2448 43.25 34.3125C43.25 33.3802 42.4948 32.625 41.5625 32.625H23C22.0677 32.625 21.3125 33.3802 21.3125 34.3125C21.3125 35.2448 22.0677 36 23 36Z" fill="#F68820"/>
</g>
<g clip-path="url(#clip9_0_107)">
<path d="M23 42.75H41.5625C42.4948 42.75 43.25 41.9948 43.25 41.0625C43.25 40.1302 42.4948 39.375 41.5625 39.375H23C22.0677 39.375 21.3125 40.1302 21.3125 41.0625C21.3125 41.9948 22.0677 42.75 23 42.75Z" fill="#F68820"/>
</g>
<g clip-path="url(#clip10_0_107)">
<path d="M44.5156 57.9375H41.1406V54.5625H44.5156V57.9375Z" fill="#808080"/>
</g>
<g clip-path="url(#clip11_0_107)">
<path d="M33.125 54.5625H41.1406V57.9375H33.125V54.5625Z" fill="#B3B4B6"/>
</g>
<g clip-path="url(#clip12_0_107)">
<path d="M47.8906 57.9375H26.7969C24.933 57.9375 23.4219 59.4487 23.4219 61.3125H51.2656C51.2656 59.4487 49.7545 57.9375 47.8906 57.9375Z" fill="#DBDEE3"/>
</g>
<g clip-path="url(#clip13_0_107)">
<path d="M47.8906 57.9375H44.5156C42.6518 57.9375 41.1406 59.4487 41.1406 61.3125H51.2656C51.2656 59.4487 49.7545 57.9375 47.8906 57.9375Z" fill="#808080"/>
</g>
<g clip-path="url(#clip14_0_107)">
<path d="M23.8438 10.6875H21.3125C15.721 10.6875 11.1875 15.221 11.1875 20.8125C11.1875 26.404 15.721 30.9375 21.3125 30.9375H23.8438C29.4353 30.9375 33.9688 26.404 33.9688 20.8125C33.9688 15.221 29.4353 10.6875 23.8438 10.6875Z" fill="#5C76B2"/>
</g>
<g clip-path="url(#clip15_0_107)">
<path d="M21.3125 30.9375C26.9044 30.9375 31.4375 26.4044 31.4375 20.8125C31.4375 15.2206 26.9044 10.6875 21.3125 10.6875C15.7206 10.6875 11.1875 15.2206 11.1875 20.8125C11.1875 26.4044 15.7206 30.9375 21.3125 30.9375Z" fill="#6FA4D8"/>
</g>
<g clip-path="url(#clip16_0_107)">
<path d="M21.3125 29.25C25.9724 29.25 29.75 25.4724 29.75 20.8125C29.75 16.1526 25.9724 12.375 21.3125 12.375C16.6526 12.375 12.875 16.1526 12.875 20.8125C12.875 25.4724 16.6526 29.25 21.3125 29.25Z" fill="#55525B"/>
</g>
<g clip-path="url(#clip17_0_107)">
<path d="M21.3125 21.2344C21.0796 21.2344 20.8906 21.0454 20.8906 20.8125V14.0625C20.8906 13.8296 21.0796 13.6406 21.3125 13.6406C21.5454 13.6406 21.7344 13.8296 21.7344 14.0625V20.8125C21.7344 21.0454 21.5454 21.2344 21.3125 21.2344Z" fill="#6FA4D8"/>
</g>
<g clip-path="url(#clip18_0_107)">
<path d="M17.7333 24.8145C17.6253 24.8145 17.5173 24.7732 17.4346 24.6913C17.2701 24.5268 17.2701 24.2593 17.4346 24.0948L21.0138 20.5148C21.1783 20.3502 21.4458 20.3502 21.6103 20.5148C21.7749 20.6793 21.7749 20.9468 21.6103 21.1113L18.0311 24.6913C17.9493 24.7732 17.8413 24.8145 17.7333 24.8145Z" fill="#6FA4D8"/>
</g>
<g clip-path="url(#clip19_0_107)">
<path d="M21.3125 22.5C22.2445 22.5 23 21.7445 23 20.8125C23 19.8805 22.2445 19.125 21.3125 19.125C20.3805 19.125 19.625 19.8805 19.625 20.8125C19.625 21.7445 20.3805 22.5 21.3125 22.5Z" fill="#F68820"/>
</g>
<g clip-path="url(#clip20_0_107)">
<path d="M21.3125 21.6562C21.7785 21.6562 22.1562 21.2785 22.1562 20.8125C22.1562 20.3465 21.7785 19.9688 21.3125 19.9688C20.8465 19.9688 20.4688 20.3465 20.4688 20.8125C20.4688 21.2785 20.8465 21.6562 21.3125 21.6562Z" fill="#DBDEE3"/>
</g>
<g clip-path="url(#clip21_0_107)">
<path d="M15.4062 21.2344H14.5625C14.3296 21.2344 14.1406 21.0454 14.1406 20.8125C14.1406 20.5796 14.3296 20.3906 14.5625 20.3906H15.4062C15.6391 20.3906 15.8281 20.5796 15.8281 20.8125C15.8281 21.0454 15.6391 21.2344 15.4062 21.2344Z" fill="#F68820"/>
</g>
<g clip-path="url(#clip22_0_107)">
<path d="M21.3125 27.9844C21.0796 27.9844 20.8906 27.7954 20.8906 27.5625V26.7188C20.8906 26.4859 21.0796 26.2969 21.3125 26.2969C21.5454 26.2969 21.7344 26.4859 21.7344 26.7188V27.5625C21.7344 27.7954 21.5454 27.9844 21.3125 27.9844Z" fill="#F68820"/>
</g>
<g clip-path="url(#clip23_0_107)">
<path d="M28.0625 21.2344H27.2188C26.9859 21.2344 26.7969 21.0454 26.7969 20.8125C26.7969 20.5796 26.9859 20.3906 27.2188 20.3906H28.0625C28.2954 20.3906 28.4844 20.5796 28.4844 20.8125C28.4844 21.0454 28.2954 21.2344 28.0625 21.2344Z" fill="#F68820"/>
</g>
<g clip-path="url(#clip24_0_107)">
<path d="M49.1562 42.75C48.2239 42.75 47.4688 41.9948 47.4688 41.0625C47.4688 40.1302 48.2239 39.375 49.1562 39.375C50.0886 39.375 50.8438 40.1302 50.8438 41.0625C50.8438 41.9948 50.0886 42.75 49.1562 42.75Z" fill="#F68820"/>
</g>
<g clip-path="url(#clip25_0_107)">
<path d="M48.5235 26.5078L49.1563 27.1406L51.0547 25.2422C51.404 24.8929 51.971 24.8929 52.3203 25.2422C52.6697 25.5915 52.6697 26.1585 52.3203 26.5078L49.7891 29.0391C49.4398 29.3884 48.8728 29.3884 48.5235 29.0391L47.2578 27.7735C46.9085 27.4241 46.9085 26.8571 47.2578 26.5078C47.6071 26.1585 48.1741 26.1585 48.5235 26.5078Z" fill="#5C76B2"/>
</g>
<g clip-path="url(#clip26_0_107)">
<path d="M48.5235 33.2578L49.1563 33.8906L51.0547 31.9922C51.404 31.6429 51.971 31.6429 52.3203 31.9922C52.6697 32.3415 52.6697 32.9085 52.3203 33.2578L49.7891 35.7891C49.4398 36.1384 48.8728 36.1384 48.5235 35.7891L47.2578 34.5235C46.9085 34.1742 46.9085 33.6071 47.2578 33.2578C47.6071 32.9085 48.1741 32.9085 48.5235 33.2578Z" fill="#5C76B2"/>
</g>
</g>
</g>
<defs>
<clipPath id="clip0_0_107">
<rect width="72" height="72" fill="white" transform="translate(0.5)"/>
</clipPath>
<clipPath id="clip1_0_107">
<rect width="50.625" height="50.625" fill="white" transform="translate(11.1875 10.6875)"/>
</clipPath>
<clipPath id="clip2_0_107">
<rect width="47.25" height="30.375" fill="white" transform="translate(14.5625 19.125)"/>
</clipPath>
<clipPath id="clip3_0_107">
<rect width="47.25" height="5.0625" fill="white" transform="translate(14.5625 49.5)"/>
</clipPath>
<clipPath id="clip4_0_107">
<rect width="43.875" height="30.375" fill="white" transform="translate(14.5625 19.125)"/>
</clipPath>
<clipPath id="clip5_0_107">
<rect width="43.875" height="5.0625" fill="white" transform="translate(14.5625 49.5)"/>
</clipPath>
<clipPath id="clip6_0_107">
<rect width="37.125" height="23.625" fill="white" transform="translate(17.9375 22.5)"/>
</clipPath>
<clipPath id="clip7_0_107">
<rect width="21.9375" height="3.375" fill="white" transform="translate(21.3125 25.875)"/>
</clipPath>
<clipPath id="clip8_0_107">
<rect width="21.9375" height="3.375" fill="white" transform="translate(21.3125 32.625)"/>
</clipPath>
<clipPath id="clip9_0_107">
<rect width="21.9375" height="3.375" fill="white" transform="translate(21.3125 39.375)"/>
</clipPath>
<clipPath id="clip10_0_107">
<rect width="3.375" height="3.375" fill="white" transform="translate(41.1406 54.5625)"/>
</clipPath>
<clipPath id="clip11_0_107">
<rect width="8.01562" height="3.375" fill="white" transform="translate(33.125 54.5625)"/>
</clipPath>
<clipPath id="clip12_0_107">
<rect width="27.8438" height="3.375" fill="white" transform="translate(23.4219 57.9375)"/>
</clipPath>
<clipPath id="clip13_0_107">
<rect width="10.125" height="3.375" fill="white" transform="translate(41.1406 57.9375)"/>
</clipPath>
<clipPath id="clip14_0_107">
<rect width="22.7812" height="20.25" fill="white" transform="translate(11.1875 10.6875)"/>
</clipPath>
<clipPath id="clip15_0_107">
<rect width="20.25" height="20.25" fill="white" transform="translate(11.1875 10.6875)"/>
</clipPath>
<clipPath id="clip16_0_107">
<rect width="16.875" height="16.875" fill="white" transform="translate(12.875 12.375)"/>
</clipPath>
<clipPath id="clip17_0_107">
<rect width="0.84375" height="7.59375" fill="white" transform="translate(20.8906 13.6406)"/>
</clipPath>
<clipPath id="clip18_0_107">
<rect width="4.42252" height="4.42315" fill="white" transform="translate(17.3112 20.3914)"/>
</clipPath>
<clipPath id="clip19_0_107">
<rect width="3.375" height="3.375" fill="white" transform="translate(19.625 19.125)"/>
</clipPath>
<clipPath id="clip20_0_107">
<rect width="1.6875" height="1.6875" fill="white" transform="translate(20.4688 19.9688)"/>
</clipPath>
<clipPath id="clip21_0_107">
<rect width="1.6875" height="0.84375" fill="white" transform="translate(14.1406 20.3906)"/>
</clipPath>
<clipPath id="clip22_0_107">
<rect width="0.84375" height="1.6875" fill="white" transform="translate(20.8906 26.2969)"/>
</clipPath>
<clipPath id="clip23_0_107">
<rect width="1.6875" height="0.84375" fill="white" transform="translate(26.7969 20.3906)"/>
</clipPath>
<clipPath id="clip24_0_107">
<rect width="3.375" height="3.375" fill="white" transform="translate(47.4688 39.375)"/>
</clipPath>
<clipPath id="clip25_0_107">
<rect width="5.58648" height="4.32084" fill="white" transform="translate(46.9958 24.9802)"/>
</clipPath>
<clipPath id="clip26_0_107">
<rect width="5.58648" height="4.32085" fill="white" transform="translate(46.9958 31.7302)"/>
</clipPath>
</defs>
</svg>
