<svg width="73" height="72" viewBox="0 0 73 72" fill="none" xmlns="http://www.w3.org/2000/svg">
<g clip-path="url(#clip0_0_217)">
<path fill-rule="evenodd" clip-rule="evenodd" d="M14.7603 16.3469C18.8915 10.7635 24.8225 7.58043 31.5472 5.83164C39.7865 3.68899 48.6052 1.15241 55.8268 5.66748C64.7926 11.2731 73.4236 20.6473 71.9875 31.1158C70.5865 41.3289 57.9485 44.0955 49.7061 50.2868C40.3628 57.3049 33.2155 71.8053 21.9398 68.7089C10.6227 65.601 8.86992 50.257 7.2764 38.635C6.15603 30.4638 9.85631 22.975 14.7603 16.3469Z" fill="white"/>
<g clip-path="url(#clip1_0_217)">
<g clip-path="url(#clip2_0_217)">
<path d="M41.5625 41.9062V33.4688H31.4375V41.9062L19.2875 58.1063C18.0363 59.7752 19.2268 62.1562 21.3125 62.1562H51.6875C53.7733 62.1562 54.9638 59.7752 53.7125 58.1063L41.5625 41.9062Z" fill="#6FA4D8"/>
</g>
<g clip-path="url(#clip3_0_217)">
<path d="M53.7125 58.1063L41.5625 41.9062V33.4688H36.5H31.4375V35.5781H35.2344C35.933 35.5781 36.5 36.1451 36.5 36.8438V41.9062L43.25 62.1562H51.6875C53.7733 62.1562 54.9638 59.7752 53.7125 58.1063Z" fill="#5C76B2"/>
</g>
<g clip-path="url(#clip4_0_217)">
<path d="M41.5625 33.4688H31.4375C30.5052 33.4688 29.75 32.7136 29.75 31.7812C29.75 30.8489 30.5052 30.0938 31.4375 30.0938H41.5625C42.4948 30.0938 43.25 30.8489 43.25 31.7812C43.25 32.7136 42.4948 33.4688 41.5625 33.4688Z" fill="#6FA4D8"/>
</g>
<g clip-path="url(#clip5_0_217)">
<path d="M41.5625 30.0938H36.5C37.4323 30.0938 38.1875 30.8489 38.1875 31.7812C38.1875 32.7136 37.4323 33.4688 36.5 33.4688H41.5625C42.4948 33.4688 43.25 32.7136 43.25 31.7812C43.25 30.8489 42.4948 30.0938 41.5625 30.0938Z" fill="#5C76B2"/>
</g>
<g clip-path="url(#clip6_0_217)">
<path d="M50 58.7813H23L29.3281 50.3438L29.329 50.343C31.1211 47.9518 34.7079 47.951 36.5008 50.3413L36.5017 50.3421C38.2947 52.7316 41.8781 52.7325 43.6719 50.3438L50 58.7813Z" fill="#F68820"/>
</g>
<g clip-path="url(#clip7_0_217)">
<path d="M43.6719 50.3438L43.671 50.343C41.8789 47.9518 38.2921 47.951 36.4992 50.3413L36.4983 50.3421C34.7053 52.7316 31.1219 52.7325 29.3281 50.3438L23 58.7813H50L43.6719 50.3438Z" fill="#FBBE18"/>
</g>
<g clip-path="url(#clip8_0_217)">
<path d="M43.6718 50.3437L43.671 50.3429C42.4813 48.755 40.5019 48.2276 38.7806 48.7482L42.1252 58.7812H50L43.6718 50.3437Z" fill="#F68820"/>
</g>
<g clip-path="url(#clip9_0_217)">
<path d="M33.5469 55.8281C34.2459 55.8281 34.8125 55.2615 34.8125 54.5625C34.8125 53.8635 34.2459 53.2969 33.5469 53.2969C32.8479 53.2969 32.2812 53.8635 32.2812 54.5625C32.2812 55.2615 32.8479 55.8281 33.5469 55.8281Z" fill="#F68820"/>
</g>
<g clip-path="url(#clip10_0_217)">
<path d="M30.5937 57.5156C31.0597 57.5156 31.4375 57.1379 31.4375 56.6719C31.4375 56.2059 31.0597 55.8281 30.5937 55.8281C30.1278 55.8281 29.75 56.2059 29.75 56.6719C29.75 57.1379 30.1278 57.5156 30.5937 57.5156Z" fill="#F68820"/>
</g>
<g clip-path="url(#clip11_0_217)">
<path d="M32.2812 25.0312C34.6112 25.0312 36.5 23.1425 36.5 20.8125C36.5 18.4825 34.6112 16.5938 32.2812 16.5938C29.9513 16.5938 28.0625 18.4825 28.0625 20.8125C28.0625 23.1425 29.9513 25.0312 32.2812 25.0312Z" fill="#F68820"/>
</g>
<g clip-path="url(#clip12_0_217)">
<path d="M31.0156 20.8125C31.7146 20.8125 32.2812 20.2459 32.2812 19.5469C32.2812 18.8479 31.7146 18.2812 31.0156 18.2812C30.3166 18.2812 29.75 18.8479 29.75 19.5469C29.75 20.2459 30.3166 20.8125 31.0156 20.8125Z" fill="#FBBE18"/>
</g>
<g clip-path="url(#clip13_0_217)">
<path d="M40.7187 28.4062C42.1167 28.4062 43.25 27.273 43.25 25.875C43.25 24.477 42.1167 23.3438 40.7187 23.3438C39.3208 23.3438 38.1875 24.477 38.1875 25.875C38.1875 27.273 39.3208 28.4062 40.7187 28.4062Z" fill="#F68820"/>
</g>
<g clip-path="url(#clip14_0_217)">
<path d="M39.875 25.875C40.341 25.875 40.7188 25.4972 40.7188 25.0312C40.7188 24.5653 40.341 24.1875 39.875 24.1875C39.409 24.1875 39.0312 24.5653 39.0312 25.0312C39.0312 25.4972 39.409 25.875 39.875 25.875Z" fill="#FBBE18"/>
</g>
<g clip-path="url(#clip15_0_217)">
<path d="M44.3047 10.8984C44.3047 11.4806 43.25 13.2188 43.25 13.2188C43.25 13.2188 42.1953 11.4806 42.1953 10.8984C42.1953 10.3162 42.6678 9.84375 43.25 9.84375C43.8322 9.84375 44.3047 10.3162 44.3047 10.8984Z" fill="#F68820"/>
</g>
<g clip-path="url(#clip16_0_217)">
<path d="M40.3062 11.9885C40.8107 12.2804 41.7887 14.0624 41.7887 14.0624C41.7887 14.0624 39.7561 14.1072 39.2515 13.8161C38.7478 13.5241 38.5748 12.8795 38.8659 12.3749C39.157 11.8704 39.8025 11.6974 40.3062 11.9885Z" fill="#F68820"/>
</g>
<g clip-path="url(#clip17_0_217)">
<path d="M39.2515 15.9964C39.7561 15.7053 41.7887 15.75 41.7887 15.75C41.7887 15.75 40.8108 17.532 40.3062 17.824C39.8017 18.1151 39.157 17.9421 38.8651 17.4375C38.5748 16.933 38.7478 16.2883 39.2515 15.9964Z" fill="#F68820"/>
</g>
<g clip-path="url(#clip18_0_217)">
<path d="M42.1953 18.9141C42.1953 18.3319 43.25 16.5938 43.25 16.5938C43.25 16.5938 44.3047 18.3319 44.3047 18.9141C44.3047 19.4962 43.8322 19.9688 43.25 19.9688C42.6678 19.9688 42.1953 19.4962 42.1953 18.9141Z" fill="#F68820"/>
</g>
<g clip-path="url(#clip19_0_217)">
<path d="M46.1938 17.824C45.6893 17.532 44.7114 15.75 44.7114 15.75C44.7114 15.75 46.744 15.7053 47.2485 15.9964C47.7531 16.2875 47.9261 16.933 47.635 17.4375C47.343 17.9421 46.6976 18.1151 46.1938 17.824Z" fill="#F68820"/>
</g>
<g clip-path="url(#clip20_0_217)">
<path d="M47.2485 13.8162C46.744 14.1073 44.7114 14.0626 44.7114 14.0626C44.7114 14.0626 45.6893 12.2806 46.1938 11.9886C46.6984 11.6967 47.343 11.8705 47.6341 12.3751C47.9252 12.8796 47.7522 13.5243 47.2485 13.8162Z" fill="#F68820"/>
</g>
</g>
</g>
<defs>
<clipPath id="clip0_0_217">
<rect width="72" height="72" fill="white" transform="translate(0.5)"/>
</clipPath>
<clipPath id="clip1_0_217">
<rect width="35.4464" height="52.3125" fill="white" transform="translate(18.7768 9.84375)"/>
</clipPath>
<clipPath id="clip2_0_217">
<rect width="35.4464" height="28.6875" fill="white" transform="translate(18.7768 33.4688)"/>
</clipPath>
<clipPath id="clip3_0_217">
<rect width="22.7857" height="28.6875" fill="white" transform="translate(31.4375 33.4688)"/>
</clipPath>
<clipPath id="clip4_0_217">
<rect width="13.5" height="3.375" fill="white" transform="translate(29.75 30.0938)"/>
</clipPath>
<clipPath id="clip5_0_217">
<rect width="6.75" height="3.375" fill="white" transform="translate(36.5 30.0938)"/>
</clipPath>
<clipPath id="clip6_0_217">
<rect width="27" height="10.2323" fill="white" transform="translate(23 48.5491)"/>
</clipPath>
<clipPath id="clip7_0_217">
<rect width="27" height="10.2323" fill="white" transform="translate(23 48.5491)"/>
</clipPath>
<clipPath id="clip8_0_217">
<rect width="11.2193" height="10.2268" fill="white" transform="translate(38.7806 48.5544)"/>
</clipPath>
<clipPath id="clip9_0_217">
<rect width="2.53125" height="2.53125" fill="white" transform="translate(32.2812 53.2969)"/>
</clipPath>
<clipPath id="clip10_0_217">
<rect width="1.6875" height="1.6875" fill="white" transform="translate(29.75 55.8281)"/>
</clipPath>
<clipPath id="clip11_0_217">
<rect width="8.4375" height="8.4375" fill="white" transform="translate(28.0625 16.5938)"/>
</clipPath>
<clipPath id="clip12_0_217">
<rect width="2.53125" height="2.53125" fill="white" transform="translate(29.75 18.2812)"/>
</clipPath>
<clipPath id="clip13_0_217">
<rect width="5.0625" height="5.0625" fill="white" transform="translate(38.1875 23.3438)"/>
</clipPath>
<clipPath id="clip14_0_217">
<rect width="1.6875" height="1.6875" fill="white" transform="translate(39.0312 24.1875)"/>
</clipPath>
<clipPath id="clip15_0_217">
<rect width="2.10938" height="3.375" fill="white" transform="translate(42.1953 9.84375)"/>
</clipPath>
<clipPath id="clip16_0_217">
<rect width="3.06411" height="2.21774" fill="white" transform="translate(38.7245 11.8472)"/>
</clipPath>
<clipPath id="clip17_0_217">
<rect width="3.06436" height="2.21774" fill="white" transform="translate(38.7243 15.7476)"/>
</clipPath>
<clipPath id="clip18_0_217">
<rect width="2.10938" height="3.375" fill="white" transform="translate(42.1953 16.5938)"/>
</clipPath>
<clipPath id="clip19_0_217">
<rect width="3.06493" height="2.21774" fill="white" transform="translate(44.7114 15.7476)"/>
</clipPath>
<clipPath id="clip20_0_217">
<rect width="3.06411" height="2.21812" fill="white" transform="translate(44.7114 11.8469)"/>
</clipPath>
</defs>
</svg>
