<svg width="73" height="72" viewBox="0 0 73 72" fill="none" xmlns="http://www.w3.org/2000/svg">
<g clip-path="url(#clip0_0_166)">
<path fill-rule="evenodd" clip-rule="evenodd" d="M14.7604 16.3469C18.8915 10.7635 24.8225 7.58043 31.5472 5.83164C39.7865 3.68899 48.6052 1.15241 55.8268 5.66748C64.7926 11.2731 73.4236 20.6473 71.9875 31.1158C70.5866 41.3289 57.9485 44.0955 49.7061 50.2868C40.3629 57.3049 33.2155 71.8053 21.9398 68.7089C10.6227 65.601 8.86992 50.257 7.2764 38.635C6.15603 30.4638 9.85632 22.975 14.7604 16.3469Z" fill="#B3E3FF"/>
<g clip-path="url(#clip1_0_166)">
<g clip-path="url(#clip2_0_166)">
<path d="M39.9011 27.3406C41.7651 27.3406 43.2761 25.8295 43.2761 23.9656C43.2761 22.1016 41.7651 20.5906 39.9011 20.5906C38.0371 20.5906 36.5261 22.1016 36.5261 23.9656C36.5261 25.8295 38.0371 27.3406 39.9011 27.3406Z" fill="#F68820"/>
</g>
<path d="M58.1262 58.3906L43.2762 38.5903V24.3875C43.2762 23.456 42.5202 22.7 41.5887 22.7C40.6572 22.7 39.9012 23.456 39.9012 24.3875V38.5903L25.0512 58.3906C24.4918 59.1364 24.6437 60.1945 25.3887 60.7531C25.6924 60.9817 26.0477 61.0906 26.4004 61.0906C26.9134 61.0906 27.4196 60.8577 27.752 60.4156L39.902 44.2156V59.4031C39.902 60.3346 40.658 61.0906 41.5895 61.0906C42.521 61.0906 43.277 60.3346 43.277 59.4031V44.2156L55.427 60.4156C55.7586 60.8568 56.2657 61.0906 56.7787 61.0906C57.1306 61.0906 57.4866 60.9809 57.7904 60.7531C58.5337 60.1945 58.6848 59.1364 58.1262 58.3906Z" fill="#55525B"/>
<g clip-path="url(#clip3_0_166)">
<path d="M36.5236 49.2782C35.819 49.2782 35.1086 49.0579 34.5011 48.6032C33.0094 47.4843 32.7081 45.3691 33.8261 43.8773L38.8886 37.1273C40.0083 35.6364 42.1227 35.336 43.6136 36.4523C45.1054 37.5711 45.4066 39.6864 44.2886 41.1781L39.2261 47.9282C38.5629 48.8124 37.5496 49.2782 36.5236 49.2782Z" fill="#5C76B2"/>
</g>
<g clip-path="url(#clip4_0_166)">
<path d="M46.6536 49.278C45.6276 49.278 44.6143 48.8123 43.9511 47.928L38.8886 41.178C37.7706 39.6863 38.0727 37.5718 39.5636 36.4522C41.0537 35.3351 43.169 35.6346 44.2886 37.1272L49.3511 43.8772C50.4691 45.3689 50.167 47.4834 48.6761 48.603C48.0686 49.0586 47.3582 49.278 46.6536 49.278Z" fill="#5C76B2"/>
</g>
<g clip-path="url(#clip5_0_166)">
<g clip-path="url(#clip6_0_166)">
<path d="M57.3474 19.1216L54.0238 18.5352C51.2707 18.05 48.6449 19.8885 48.1589 22.6417C47.6738 25.3949 49.5123 28.0206 52.2655 28.5066L55.589 29.093C58.3421 29.5782 60.9679 27.7396 61.4539 24.9865C61.9391 22.2325 60.1005 19.6067 57.3474 19.1216Z" fill="#F68820"/>
</g>
<g clip-path="url(#clip7_0_166)">
<path d="M53.1447 28.5835C55.9406 28.5835 58.2072 26.3169 58.2072 23.521C58.2072 20.7251 55.9406 18.4585 53.1447 18.4585C50.3487 18.4585 48.0822 20.7251 48.0822 23.521C48.0822 26.3169 50.3487 28.5835 53.1447 28.5835Z" fill="#FBBE18"/>
</g>
<g clip-path="url(#clip8_0_166)">
<path d="M52.5583 26.8454L40.9255 24.7943L42.0975 18.1472L53.7302 20.1984C55.5662 20.5224 56.7914 22.2723 56.4682 24.1083C56.1442 25.9426 54.3943 27.1686 52.5583 26.8454Z" fill="#6FA4D8"/>
</g>
<g clip-path="url(#clip9_0_166)">
<path d="M40.9255 24.7933L52.5583 26.8444C54.3943 27.1684 56.1442 25.9424 56.4682 24.1064L41.5119 21.4697L40.9255 24.7933Z" fill="#5C76B2"/>
</g>
<g clip-path="url(#clip10_0_166)">
<path d="M37.3083 25.869L25.6755 23.8179L27.4339 13.8464L39.0667 15.8976C41.8198 16.3827 43.6584 19.0085 43.1732 21.7625C42.688 24.5165 40.0623 26.355 37.3083 25.869Z" fill="#6FA4D8"/>
</g>
<g clip-path="url(#clip11_0_166)">
<path d="M25.6755 23.818L37.3083 25.8691C40.0615 26.3543 42.6872 24.5158 43.1732 21.7626L26.5547 18.8323L25.6755 23.818Z" fill="#5C76B2"/>
</g>
<g clip-path="url(#clip12_0_166)">
<path d="M24.6959 9.93742L21.3724 9.35101C16.7833 8.54186 12.4076 11.6064 11.5976 16.1955C10.7884 20.7847 13.8529 25.1604 18.4421 25.9704L21.7656 26.5568C26.3548 27.3659 30.7313 24.3014 31.5404 19.7123C32.3496 15.1223 29.2851 10.7466 24.6959 9.93742Z" fill="#F68820"/>
</g>
<g clip-path="url(#clip13_0_166)">
<path d="M19.9084 26.0981C24.5683 26.0981 28.3459 22.3205 28.3459 17.6606C28.3459 13.0007 24.5683 9.22314 19.9084 9.22314C15.2485 9.22314 11.4709 13.0007 11.4709 17.6606C11.4709 22.3205 15.2485 26.0981 19.9084 26.0981Z" fill="#FBBE18"/>
</g>
<g clip-path="url(#clip14_0_166)">
<path d="M19.9077 24.4102C23.6356 24.4102 26.6577 21.3881 26.6577 17.6602C26.6577 13.9322 23.6356 10.9102 19.9077 10.9102C16.1797 10.9102 13.1577 13.9322 13.1577 17.6602C13.1577 21.3881 16.1797 24.4102 19.9077 24.4102Z" fill="#55525B"/>
</g>
<g clip-path="url(#clip15_0_166)">
<path d="M19.0614 10.9626C16.8575 11.2402 14.9169 12.5987 13.9027 14.5747C14.2191 15.8235 15.2333 16.836 16.5841 17.0748C18.4201 17.3988 20.1701 16.1728 20.4941 14.3368C20.7312 12.986 20.1271 11.6866 19.0614 10.9626Z" fill="#B3B4B6"/>
</g>
</g>
<g clip-path="url(#clip16_0_166)">
<path d="M43.2761 27.3406C45.1401 27.3406 46.6511 25.8295 46.6511 23.9656C46.6511 22.1016 45.1401 20.5906 43.2761 20.5906C41.4122 20.5906 39.9011 22.1016 39.9011 23.9656C39.9011 25.8295 41.4122 27.3406 43.2761 27.3406Z" fill="#FBBE18"/>
</g>
<g clip-path="url(#clip17_0_166)">
<path d="M43.2761 25.6531C44.2081 25.6531 44.9636 24.8976 44.9636 23.9656C44.9636 23.0336 44.2081 22.2781 43.2761 22.2781C42.3441 22.2781 41.5886 23.0336 41.5886 23.9656C41.5886 24.8976 42.3441 25.6531 43.2761 25.6531Z" fill="#55525B"/>
</g>
<g clip-path="url(#clip18_0_166)">
<path d="M26.4011 62.7781C28.2651 62.7781 29.7761 61.267 29.7761 59.4031C29.7761 57.5391 28.2651 56.0281 26.4011 56.0281C24.5372 56.0281 23.0261 57.5391 23.0261 59.4031C23.0261 61.267 24.5372 62.7781 26.4011 62.7781Z" fill="#F68820"/>
</g>
<g clip-path="url(#clip19_0_166)">
<path d="M56.7761 62.7781C58.6401 62.7781 60.1511 61.267 60.1511 59.4031C60.1511 57.5391 58.6401 56.0281 56.7761 56.0281C54.9122 56.0281 53.4011 57.5391 53.4011 59.4031C53.4011 61.267 54.9122 62.7781 56.7761 62.7781Z" fill="#F68820"/>
</g>
<g clip-path="url(#clip20_0_166)">
<path d="M41.5886 62.7781C43.4526 62.7781 44.9636 61.267 44.9636 59.4031C44.9636 57.5391 43.4526 56.0281 41.5886 56.0281C39.7246 56.0281 38.2136 57.5391 38.2136 59.4031C38.2136 61.267 39.7246 62.7781 41.5886 62.7781Z" fill="#F68820"/>
</g>
<g clip-path="url(#clip21_0_166)">
<path d="M41.5886 49.2781C39.7248 49.2781 38.2136 47.7669 38.2136 45.9031V39.1531C38.2136 37.2892 39.7248 35.7781 41.5886 35.7781C43.4525 35.7781 44.9636 37.2892 44.9636 39.1531V45.9031C44.9636 47.7669 43.4525 49.2781 41.5886 49.2781Z" fill="#F68820"/>
</g>
<g clip-path="url(#clip22_0_166)">
<path d="M41.5886 49.2781C39.7248 49.2781 38.2136 47.7669 38.2136 45.9031V39.1531C38.2136 37.2892 39.7248 35.7781 41.5886 35.7781C43.4525 35.7781 44.9636 37.2892 44.9636 39.1531V45.9031C44.9636 47.7669 43.4525 49.2781 41.5886 49.2781Z" fill="#6FA4D8"/>
</g>
</g>
</g>
<defs>
<clipPath id="clip0_0_166">
<rect width="72" height="72" fill="white" transform="translate(0.5)"/>
</clipPath>
<clipPath id="clip1_0_166">
<rect width="50.0636" height="53.5567" fill="white" transform="translate(11.468 9.22144)"/>
</clipPath>
<clipPath id="clip2_0_166">
<rect width="6.75" height="6.75" fill="white" transform="translate(36.5261 20.5906)"/>
</clipPath>
<clipPath id="clip3_0_166">
<rect width="11.8129" height="13.5001" fill="white" transform="translate(33.1509 35.7781)"/>
</clipPath>
<clipPath id="clip4_0_166">
<rect width="11.8124" height="13.5009" fill="white" transform="translate(38.2137 35.7771)"/>
</clipPath>
<clipPath id="clip5_0_166">
<rect width="50.0636" height="19.9493" fill="white" transform="translate(11.468 9.22144)"/>
</clipPath>
<clipPath id="clip6_0_166">
<rect width="13.4503" height="10.7132" fill="white" transform="translate(48.0813 18.4575)"/>
</clipPath>
<clipPath id="clip7_0_166">
<rect width="10.125" height="10.125" fill="white" transform="translate(48.0822 18.4585)"/>
</clipPath>
<clipPath id="clip8_0_166">
<rect width="15.5944" height="8.7499" fill="white" transform="translate(40.9255 18.1472)"/>
</clipPath>
<clipPath id="clip9_0_166">
<rect width="15.5427" height="5.42661" fill="white" transform="translate(40.9255 21.4697)"/>
</clipPath>
<clipPath id="clip10_0_166">
<rect width="17.5753" height="12.1005" fill="white" transform="translate(25.6755 13.8464)"/>
</clipPath>
<clipPath id="clip11_0_166">
<rect width="17.4977" height="7.11453" fill="white" transform="translate(25.6755 18.8323)"/>
</clipPath>
<clipPath id="clip12_0_166">
<rect width="20.202" height="17.4649" fill="white" transform="translate(11.468 9.22144)"/>
</clipPath>
<clipPath id="clip13_0_166">
<rect width="16.875" height="16.875" fill="white" transform="translate(11.4709 9.22314)"/>
</clipPath>
<clipPath id="clip14_0_166">
<rect width="13.5" height="13.5" fill="white" transform="translate(13.1577 10.9102)"/>
</clipPath>
<clipPath id="clip15_0_166">
<rect width="6.64261" height="6.16405" fill="white" transform="translate(13.9027 10.9626)"/>
</clipPath>
<clipPath id="clip16_0_166">
<rect width="6.75" height="6.75" fill="white" transform="translate(39.9011 20.5906)"/>
</clipPath>
<clipPath id="clip17_0_166">
<rect width="3.375" height="3.37499" fill="white" transform="translate(41.5886 22.2781)"/>
</clipPath>
<clipPath id="clip18_0_166">
<rect width="6.75" height="6.75" fill="white" transform="translate(23.0261 56.0281)"/>
</clipPath>
<clipPath id="clip19_0_166">
<rect width="6.75" height="6.75" fill="white" transform="translate(53.4011 56.0281)"/>
</clipPath>
<clipPath id="clip20_0_166">
<rect width="6.75" height="6.75" fill="white" transform="translate(38.2136 56.0281)"/>
</clipPath>
<clipPath id="clip21_0_166">
<rect width="6.75" height="13.5" fill="white" transform="translate(38.2136 35.7781)"/>
</clipPath>
<clipPath id="clip22_0_166">
<rect width="6.75" height="13.5" fill="white" transform="translate(38.2136 35.7781)"/>
</clipPath>
</defs>
</svg>
